<?xml version="1.0" encoding="UTF-8"?>
<svg width="56px" height="12px" viewBox="0 0 56 12" version="1.1" xmlns="http://www.w3.org/2000/svg" xmlns:xlink="http://www.w3.org/1999/xlink">
    <!-- Generator: Sketch 51.1 (57501) - http://www.bohemiancoding.com/sketch -->
    <title>kumu</title>
    <desc>Created with Sketch.</desc>
    <defs></defs>
    <g id="Symbols" stroke="none" stroke-width="1" fill="none" fill-rule="evenodd">
        <g id="header-/-meta-/-museums" transform="translate(-166.000000, -14.000000)" fill="#FFFFFF" fill-rule="nonzero">
            <g id="header-museum-logos">
                <g id="kumu">
                    <path d="M174.885005,25.5730787 C174.885005,25.5730787 169.652496,19.3966661 169.526814,19.2453337 C169.655061,19.114521 174.05396,14.6745833 174.656724,14.0666888 L172.87921,14.0666888 C171.901962,15.0593266 167.710825,19.3222824 167.392771,19.6454668 L167.392771,14.0718188 L166,14.0718188 L166,25.5756436 L167.392771,25.5756436 L167.392771,21.3049929 C167.4492,21.2485639 168.390538,20.2764458 168.536741,20.1251134 C168.690638,20.3123552 173.122881,25.5756436 173.122881,25.5756436 L174.885005,25.5756436 L174.885005,25.5730787 Z M188.879402,20.4995969 L188.879402,14.0769487 L188.766544,14.0769487 L187.486631,14.0769487 L187.486631,20.5380713 C187.486631,22.0257454 187.304519,22.8311414 186.832568,23.4108213 C186.206718,24.1854378 185.206386,24.577876 183.862349,24.577876 C182.184868,24.577876 180.912651,23.828909 180.458653,22.5746458 C180.294496,22.1180838 180.238067,21.5435338 180.238067,20.2918355 L180.238067,14.0743837 L178.845297,14.0769487 L178.845297,20.4816422 C178.845297,21.817984 178.90942,22.4258784 179.114617,23.082507 C179.678907,24.8343715 181.410252,25.839834 183.862349,25.839834 C185.273075,25.839834 186.586332,25.4037916 187.463547,24.6419999 C188.510048,23.7493954 188.879402,22.6669842 188.879402,20.4995969 Z M204.528195,25.5730787 L205.903011,25.5730787 L205.477228,14 L205.377195,14 L204.512805,14 L201.142454,21.3229476 L200.316538,23.2697487 C200.316538,23.2697487 200.22933,23.485205 200.154946,23.6698818 C200.077997,23.4775101 199.995919,23.2697487 199.995919,23.2697487 C199.995919,23.2697487 199.31877,21.7256456 199.31877,21.7256456 L199.031495,21.0946666 L195.686794,14 L194.673636,14 L194.201684,25.5730787 L195.514942,25.5730787 L195.797087,17.3293121 C195.797087,17.3267471 195.822736,17.3293121 195.822736,17.3293121 C196.033063,17.8294784 196.571703,19.0991313 196.571703,19.0991313 L199.61374,25.5705137 L200.549949,25.5705137 L203.576596,19.058092 L204.315303,17.2831429 L204.340953,17.278013 C204.387122,19.3120226 204.528195,25.5730787 204.528195,25.5730787 Z M221.213229,20.4995969 L221.213229,14.0769487 L221.102936,14.0769487 L219.823024,14.0769487 L219.823024,20.5380713 C219.823024,22.0257454 219.640912,22.8311414 219.16896,23.4108213 C218.543111,24.1854378 217.542778,24.577876 216.198742,24.577876 C214.521261,24.577876 213.249043,23.828909 212.795046,22.5746458 C212.630889,22.1180838 212.57446,21.5435338 212.57446,20.2918355 L212.57446,14.0769487 L211.181689,14.0769487 L211.181689,20.4816422 C211.181689,21.817984 211.243248,22.4258784 211.451009,23.082507 C212.015299,24.8343715 213.746644,25.839834 216.198742,25.839834 C217.609467,25.839834 218.922724,25.4037916 219.799939,24.6419999 C220.841311,23.7493954 221.213229,22.6669842 221.213229,20.4995969 Z"></path>
                </g>
            </g>
        </g>
    </g>
</svg>